<?xml version="1.0" encoding="utf-8"?>
<!-- Generator: Adobe Illustrator 19.2.1, SVG Export Plug-In . SVG Version: 6.00 Build 0)  -->
<svg version="1.1" id="Layer_1" xmlns="http://www.w3.org/2000/svg" xmlns:xlink="http://www.w3.org/1999/xlink" x="0px" y="0px"
	 viewBox="0 0 970.5 702" style="enable-background:new 0 0 970.5 702;" xml:space="preserve">
<style type="text/css">
	.st0{fill:#F3C36A;stroke:#4A585E;stroke-width:18;stroke-miterlimit:10;}
	.st1{fill:#D9593D;stroke:#D9593D;stroke-width:20;stroke-miterlimit:10;}
	.st2{fill:#1C2124;}
	.st3{fill:#D6EBF3;stroke:#4A4747;stroke-width:5;stroke-miterlimit:10;}
</style>
<g>
	<polygon class="st0" points="237.9,267.9 201.9,93 329,239.5 370.2,31.5 452.6,204.9 538.5,53.6 598.6,209.6 679.3,39.4 
		701.6,219.1 828.7,124.5 797.8,264.8 938.6,255.3 830.4,356.2 940.4,419.2 816.7,455.5 845.9,576.8 712.5,499.5 718.8,673 
		602,559.5 564.2,679.3 466.4,542.2 356.4,674.6 304.9,532.7 160.7,633.6 208.7,501.2 37,546.9 153.8,435 28.4,349.9 175.5,331.5 
		57.6,200.1 	"/>
	<polygon class="st1" points="651.9,227.5 672.9,340.1 776.7,386 677,441.4 678.5,560.5 582.7,477.2 424.5,496.5 510,396 503,286 
		576,313.3 	"/>
	<g>
		<path class="st2" d="M329.3,273h14.3v65.5H329l-36.9-43.9v43.9h-14.1V273h14.6l36.7,43.7V273z"/>
		<path class="st2" d="M405.9,299v20.2h-39.6v5.5h39.6v13.9h-40.3c-7.2,0-13.2-6-13.2-13.2V299c0-7.2,6-13.2,13.2-13.2h27.1
			C400,285.8,405.9,291.8,405.9,299z M392,307v-7.3h-25.7v7.3H392z"/>
		<path class="st2" d="M453.9,285.8c7.3,0,13.2,6,13.2,13.2v26.4c0,7.2-5.9,13.2-13.2,13.2h-27.1c-7.2,0-13.2-6-13.2-13.2V299
			c0-7.2,6-13.2,13.2-13.2H453.9z M427.5,324.6h25.7v-24.9h-25.7V324.6z"/>
	</g>
	<g>
		<path class="st3" d="M232.3,351.9c-2.9,41.2,0.4,54.2,0.4,54.2l23.2-60.4c0,0,15.2,8.9,34.5,12.7c-1.6,36.5-15.2,80.4-15.2,80.4
			s-9.6,6.3-31,9.4c9.1-31.6,9.8-51.5,9.8-51.5s-16,34.1-30.3,46.4c-7.6-15.6-10.3-46.4-10.3-46.4s-10.2,18.7-10.2,60
			c0,0-20.1-9.8-25.4-22.9c3.8-42.8,15.2-70.2,15.2-70.2S210.9,353.6,232.3,351.9z"/>
		<path class="st3" d="M331.7,380.6l11.6-10.9c10.3,4.5,18,16,18,32.7c0,32.5-39.2,44.8-45.2,44.8c-17.4-8.7-26.5-20.7-26.5-20.7
			c0.5-36.6,26.7-51,26.7-51C321.5,377,327,378.8,331.7,380.6z M331.9,396.6c-5.8,8-12,19.2-13.1,33.6c0,0,17.2-2.4,23.2-25
			L331.9,396.6z"/>
		<path class="st3" d="M412.6,400.7c-8.7,7.4-15.8,19-20.5,27.9c-0.7,5.6-1.3,11.6-1.8,18.1c-15.8-3.8-23.4-10.9-23.4-10.9
			c1.3-29.4,5.1-54.2,5.1-54.2l31.6-6.9c0,0-3.6,9.8-7.1,27.6c8.7-15.2,18.7-24.5,26.5-24.5c6.7,0,14.1,8.2,21,24.1
			c0,0-11.8,23-12.5,50.8c0,0-16.9-5.3-24.7-12.7C415.1,410.5,412.6,400.7,412.6,400.7z"/>
		<path class="st3" d="M461.2,451.2c0,0-11.8-10-16.5-31.4c0,0,51.9,10.5,51.9-5.4c-29.9-2.7-45.3-6.3-45.3-23.2
			c0-22.7,28.8-37.9,76-37.9l5.6,38.6c0,0-18.9-5.4-51.5-6.3c11.8,16.7,50.2,7.4,50.2,29.2C531.6,431,512.9,445.7,461.2,451.2z"/>
		<path class="st3" d="M551.5,383.1c7.1-21.6,14.3-30.8,14.3-30.8l11.6,23.6l19-1.8l-8,35l-17.2-6.2c0,0-5.1,25.4-4,46.6
			c0,0-21.2-6.3-29.6-17.2c4.7-20.3,10.3-30.3,10.3-30.3c-2.7-5.3-11.4-11.1-11.4-11.1S540.3,388.2,551.5,383.1z"/>
		<path class="st3" d="M671.6,389.7c-3.3,12.2-11.1,23.6-11.1,23.6s-0.4,16.9,3.6,29.4l-15.8,7.3c-8.3-2-12.3-7.4-13.8-14.9
			c-6.2,7.3-14.7,13.1-20,13.1c-12,0-22.5-13.6-22.5-22.3c0-17.2,14.9-45.7,44.6-45.7c4,0,7.8,0.9,10.3,2.7l4.7-9.4
			C666,378.8,671.6,389.7,671.6,389.7z M634.6,421.2c1.5-10,4.9-21,9.4-31.4c-20,11.1-27.9,30.7-25.9,40.3
			C618.1,430.1,625.9,430.3,634.6,421.2z"/>
		<path class="st3" d="M743.8,393.8c0,0-7.3,9.6-5.8,33c-16.3-2.4-22.9-12.9-22.9-12.9c-9.8,11.2-12.5,16.3-13.1,17.4
			c-0.2,5.4-0.4,10.9-0.4,17.2c-14.5-3.4-27.8-12.5-27.8-12.5c3.3-28.1,11.1-62.2,11.1-62.2c16.9,3.6,24.1,9.4,24.1,9.4
			s-3.6,10.9-5.8,31.7c2.9-6.7,8.2-17.8,18.3-38.3L743.8,393.8z"/>
		<path class="st3" d="M754.7,451.2c0,0-9.1-12.7-12.5-29.7c0,0,37.4,10.2,41.7-0.7c-22.7-2.4-34.8-3.4-34.8-16
			c0-25.4,35.6-31.9,58-31.9l4.4,31c0,0-16.5-4.5-41.7-5.3c4.4,12.2,39.5,5.6,39.5,23.2C809.3,434.8,793.7,447,754.7,451.2z"/>
	</g>
</g>
</svg>
